<?xml version="1.0" encoding="utf-8"?>
<!-- Generator: Adobe Illustrator 18.0.0, SVG Export Plug-In . SVG Version: 6.00 Build 0)  -->
<!DOCTYPE svg PUBLIC "-//W3C//DTD SVG 1.1//EN" "http://www.w3.org/Graphics/SVG/1.1/DTD/svg11.dtd">
<svg version="1.1" id="Your_Icon" xmlns="http://www.w3.org/2000/svg" xmlns:xlink="http://www.w3.org/1999/xlink" x="0px" y="0px"
	 viewBox="0 0 612 792" enable-background="new 0 0 612 792" xml:space="preserve">
<rect y="180" fill="#394FA2" stroke="#000000" stroke-miterlimit="10" width="612" height="618"/>
<path fill="none" stroke="#FFFFFF" stroke-width="21" stroke-miterlimit="10" d="M547.7,506.8c3.1,3.7,12.2,16.5,12.2,37.3
	c0,25.1-12.9,38.6-12.9,38.6h-12.2c3.7,4.9,9.8,15.3,9.8,35.5c0,30-12.9,38.6-12.9,38.6h-17.1c3.7,4.3,10.4,14.7,10.4,36.1
	c0,30.6-12.9,38.6-12.9,38.6H187.9V429.7l0,0c43.5-39.2,102.2-86.3,88.7-174.4c-3.7-23.3-11-36.7,12.2-42.8
	c22.6-6.1,46.5,7.3,52.6,30c15.3,55.7,13.5,127.3-15.3,187.3h224c0,0,14.1,20.8,12.9,41c-1.2,20.2-12.9,36.7-12.9,36.7L547.7,506.8z
	 M49.6,761.4h91.8V429.7H49.6V761.4z"/>
</svg>
