<?xml version="1.0" encoding="utf-8"?>
<!-- Generator: Adobe Illustrator 18.0.0, SVG Export Plug-In . SVG Version: 6.00 Build 0)  -->
<!DOCTYPE svg PUBLIC "-//W3C//DTD SVG 1.1//EN" "http://www.w3.org/Graphics/SVG/1.1/DTD/svg11.dtd">
<svg version="1.1" id="Layer_1" xmlns="http://www.w3.org/2000/svg" xmlns:xlink="http://www.w3.org/1999/xlink" x="0px" y="0px"
	 viewBox="0 0 612 792" enable-background="new 0 0 612 792" xml:space="preserve">
<rect y="90" fill="#517FA4" stroke="#000000" stroke-miterlimit="10" width="612" height="612"/>
<g>
	<path fill="none" d="M181.8,339.7c22-47.1,69.8-80.2,124.8-80.2s103.4,33,124.8,80.2h108.9V206.9c0-25.7-20.8-46.5-46.5-46.5H238.7
		v67.9c0,9.2-7.3,15.9-15.9,15.9c-9.2,0-15.9-7.3-15.9-15.9v-67.9h-11.6v67.9c0,9.2-7.3,15.9-15.9,15.9c-9.2,0-15.9-7.3-15.9-15.9
		v-67.9h-13.5v67.9c0,9.2-7.3,15.9-15.9,15.9c-8.6,0-15.9-7.3-15.9-15.9v-67.9c-23.9,1.8-42.8,22-42.8,46.5v132.8L181.8,339.7
		L181.8,339.7z M413.7,224.6c0-11,9.2-20.2,20.2-20.2h41.6c11,0,20.2,9.2,20.2,20.2v42.2c0,11-9.2,20.2-20.2,20.2h-41.6
		c-11,0-20.2-9.2-20.2-20.2V224.6z"/>
	<path fill="none" d="M236.2,397.2c0,39.2,31.8,71,71,71c39.2,0,71-31.8,71-71c0-39.2-31.8-71-71-71
		C268.1,326.2,236.2,358.1,236.2,397.2z"/>
	<path fill="none" d="M444.3,388c0,3.1,0.6,6.1,0.6,9.2c0,75.9-61.8,138.3-137.7,138.3s-137.7-61.8-137.7-138.3c0-3.1,0-6.1,0.6-9.2
		H74.1v193.4c0,25.7,20.8,46.5,46.5,46.5h373.3c25.7,0,46.5-20.8,46.5-46.5V388H444.3z"/>
	<path fill="#FFFFFF" stroke="#517FA4" stroke-width="3" stroke-miterlimit="10" d="M493.9,98.6H120.6c-60,0-108.3,49-108.3,108.3
		v374.5c0.6,60,49,108.3,108.9,108.3h373.3c60,0,108.3-49,108.3-108.3V206.9C602.2,146.9,553.9,98.6,493.9,98.6z M116.9,160.4v67.9
		c0,9.2,7.3,15.9,15.9,15.9c9.2,0,15.9-7.3,15.9-15.9v-67.9h13.5v67.9c0,9.2,7.3,15.9,15.9,15.9c9.2,0,15.9-7.3,15.9-15.9v-67.9
		h11.6v67.9c0,9.2,7.3,15.9,15.9,15.9c9.2,0,15.9-7.3,15.9-15.9v-67.9h255.2c25.7,0,46.5,20.8,46.5,46.5v132.8H432.1
		c-22-47.7-69.8-80.8-125.5-80.8c-55.1,0-103.4,33-124.8,80.2H74.1V206.9C74.1,182.4,93,162.2,116.9,160.4z M377.6,397.2
		c0,39.2-31.8,71-71,71s-71-31.8-71-71c0-39.2,31.8-71,71-71C345.8,326.2,377.6,358.1,377.6,397.2z M493.9,627.9H120.6
		c-25.7,0-46.5-20.8-46.5-46.5V388h95.5c0,3.1-0.6,6.1-0.6,9.2c0,75.9,61.8,138.3,137.7,138.3s137.7-61.8,137.7-138.3
		c0-3.1,0-6.1-0.6-9.2h96.1v193.4C540.4,607.1,519.6,627.9,493.9,627.9z"/>
	<path fill="#FFFFFF" stroke="#517FA4" stroke-width="3" stroke-miterlimit="10" d="M433.9,286.5h41.6c11,0,20.2-9.2,20.2-20.2
		v-41.6c0-11-9.2-20.2-20.2-20.2h-41.6c-11,0-20.2,9.2-20.2,20.2v42.2C413.7,277.9,422.9,286.5,433.9,286.5z"/>
</g>
</svg>
