<?xml version="1.0" encoding="utf-8"?>
<!-- Generator: Adobe Illustrator 18.0.0, SVG Export Plug-In . SVG Version: 6.00 Build 0)  -->
<!DOCTYPE svg PUBLIC "-//W3C//DTD SVG 1.1//EN" "http://www.w3.org/Graphics/SVG/1.1/DTD/svg11.dtd">
<svg version="1.1" id="Your_Icon" xmlns="http://www.w3.org/2000/svg" xmlns:xlink="http://www.w3.org/1999/xlink" x="0px" y="0px"
	 viewBox="0 0 612 792" enable-background="new 0 0 612 792" xml:space="preserve">
<g>
	<rect x="12.5" y="192.5" fill="#C92228" width="587" height="593"/>
	<path fill="#C92228" d="M587,205v568H25V205H587 M612,180H0v618h612V180L612,180z"/>
</g>
<path fill="#FFFFFF" stroke="#C92228" stroke-width="31" stroke-miterlimit="10" d="M262.2,570.4c-16.7,69.4-36.9,135.9-97.1,170.6
	c-18.6-104.9,27.2-183.7,48.6-267.2c-36.2-48.6,4.4-146.5,80.9-122.4c94.2,29.7-81.6,180.8,36.5,199.7
	c123.3,19.7,173.6-170.1,97.1-231.8c-12.6-10.1-26.5-18-41.1-23.7c-114.4-45.1-277.5,36.2-254.5,149.3c6.3,31.2,46.8,40.7,16.2,83.7
	c-70.7-12.4-91.7-56.8-89-115.9c4.4-96.7,109.3-164.5,214.4-173.9c133-11.9,258,38.9,275.2,138.5c19.5,112.5-60,234.2-202.4,225.3
	C308.6,600.1,292.4,584.9,262.2,570.4z"/>
</svg>
