<?xml version="1.0" encoding="utf-8"?>
<!-- Generator: Adobe Illustrator 18.0.0, SVG Export Plug-In . SVG Version: 6.00 Build 0)  -->
<!DOCTYPE svg PUBLIC "-//W3C//DTD SVG 1.1//EN" "http://www.w3.org/Graphics/SVG/1.1/DTD/svg11.dtd">
<svg version="1.1" id="Your_Icon" xmlns="http://www.w3.org/2000/svg" xmlns:xlink="http://www.w3.org/1999/xlink" x="0px" y="0px"
	 viewBox="0 0 612 792" enable-background="new 0 0 612 792" xml:space="preserve">
<rect y="266" fill="#4099FF" stroke="#000000" stroke-miterlimit="10" width="612" height="790"/>
<path fill="#FFFFFF" stroke="#FFFFFF" stroke-miterlimit="10" d="M547.5,389.4c-1.8-2.4-5.5-4.3-9.2-3.7c-1.8,0-4.3,0.6-8,1.2
	c-3.1,0.6-6.7,1.8-11,2.4c1.8-3.7,3.1-7.3,4.3-11.6c1.8-6.7,3.7-13.5,5.5-20.8c0.6-3.7-0.6-7.3-3.7-9.8s-7.3-2.4-10.4-0.6
	c-15.3,8.6-26.3,13.5-36.1,17.1c-8,3.1-15.3,4.3-23.3,5.5c-9.2-8.6-19.6-15.3-30.6-20.2c-12.9-5.5-26.3-8-39.8-8
	c-16.5,0-33,3.7-49.6,10.4l0,0c-8,3.7-15.3,8.6-22,14.7c-10.4,9.2-18.4,20.8-24.5,34.3s-9.8,27.5-9.8,42.2c0,1.8,0,3.1,0,4.9h-0.6
	c-17.7-4.9-44.7-14.1-71-25.7c-11-4.9-26.3-14.7-41-26.9s-29.4-28.2-39.8-44.1c-1.8-2.4-4.3-3.7-7.3-4.3c-3.1-0.6-5.5,0.6-8,3.1
	c-4.9,4.3-8.6,8.6-11.6,12.9c-4.9,6.1-8.6,12.9-11,19.6s-3.7,14.1-4.9,22.6c-0.6,5.5-0.6,11.6-0.6,18.4c0,14.1,1.8,28.8,8,42.2
	c-4.3,0.6-8,4.3-8.6,8.6c0,3.7-0.6,7.3-0.6,10.4c0,31.2,9.8,56.9,25.7,74.7c1.2,1.8,3.1,3.1,4.9,4.9l0,0c0,0.6,0,1.2,0,1.8
	c0,12.2,3.1,23.3,8.6,33c8,14.7,20.2,26.9,34.9,36.1c5.5,3.1,11,6.1,16.5,8.6c-24.5,8-44.1,9.8-60.6,9.8c-7.3,0-14.1-0.6-20.2-0.6
	c-6.1-0.6-11.6-0.6-16.5-0.6c-1.2,0-2.4,0-3.7,0c-3.1,0-5.5,1.8-7.3,3.7c-1.8,2.4-2.4,5.5-1.8,8c3.1,11.6,9.8,22,19,31.2
	c14.1,14.1,34.9,25.7,59.4,33.7s53.2,12.9,83.8,12.9c44.7,0,94.2-10.4,141.4-36.1c42.8-22.6,78.9-61.2,100.4-104
	c7.3-14.7,15.3-34.3,22-54.5c6.1-20.2,11-41.6,11-61.8c0-6.7-0.6-13.5-1.8-19.6c5.5-3.7,10.4-8,14.7-11.6c8.6-8,15.9-15.3,21.4-24.5
	s10.4-19,14.7-30C549.9,396.2,549.3,392.5,547.5,389.4z M506.4,432.9c-6.1,6.7-14.7,13.5-25.1,20.8c-3.7,2.4-4.9,6.7-3.7,11
	c1.8,6.1,2.4,12.9,2.4,20.8c0,17.1-4.3,36.7-9.8,56.3c-6.1,19-14.1,37.3-20.8,51.4c-19.6,39.2-53.2,75.3-92.4,96.7
	c-44.1,23.9-90.6,33.7-132.2,33.7c-38.6,0-73.4-8-99.1-20.2c-12.9-6.1-23.3-13.5-31.2-20.8c-3.7-3.1-6.1-6.7-8.6-9.8
	c1.2,0,2.4,0,3.7,0c6.1,0.6,13.5,0.6,21.4,0.6c24.5,0,56.3-3.7,96.1-22c3.7-1.8,6.1-6.1,5.5-10.4c-0.6-4.3-4.3-7.3-8.6-8
	c-8.6-0.6-17.7-3.1-26.3-6.7c-13.5-6.7-25.1-14.7-33.7-25.1c-4.3-4.9-7.3-10.4-9.8-16.5c-0.6-1.2-0.6-2.4-1.2-3.1
	c2.4,1.2,4.9,1.8,7.3,2.4c8,2.4,15.3,3.1,23.9,3.1h-0.6v1.8h1.8c5.5,0,9.8-4.9,9.8-10.4s-4.3-10.4-9.2-10.4
	c-15.9,0-32.4-8-44.7-21.4c-10.4-12.2-18.4-29.4-20.2-51.4c3.1,0.6,6.1,0.6,9.8,1.2c4.9,0.6,10.4,0.6,17.1,1.8
	c4.9,0.6,9.8-3.1,10.4-7.3c0.6-4.3-1.8-9.8-6.7-11c-6.1-1.8-11-4.9-14.7-8c-3.1-2.4-4.9-5.5-7.3-9.2c-3.1-4.9-4.9-11-6.1-17.7
	s-1.8-14.1-1.8-20.8c0-5.5,0.6-11,0.6-16.5c0.6-4.9,1.2-9.2,1.8-12.9c1.2-5.5,3.1-9.8,6.1-14.7c1.8-2.4,3.7-4.9,6.1-8
	c11,14.1,23.9,26.9,36.7,37.9c15.9,13.5,31.8,23.9,45.3,30c18.4,8,36.7,15.3,52.6,20.2c8,2.4,15.3,4.9,21.4,6.1
	c6.1,1.8,11.6,3.1,15.9,3.7c3.1,0.6,6.1-0.6,8.6-3.1c2.4-2.4,3.1-5.5,2.4-8.6c-1.2-4.9-1.8-9.8-1.8-14.7c0-15.3,5.5-31.2,13.5-44.7
	c4.3-6.7,9.2-12.9,14.7-17.7c5.5-4.9,11-8.6,16.5-11l0,0c14.1-6.1,28.8-9.2,42.2-9.2c11.6,0,22,1.8,32.4,6.1
	c10.4,4.3,19.6,10.4,27.5,19c0,0,0,0,0.6,0.6l0.6,0.6l0.6,0.6l0.6,0.6c0,0,0.6,0,0.6,0.6h0.6c0.6,0,0.6,0,0.6,0c0.6,0,0.6,0,1.2,0
	s0.6,0,1.2,0h0.6c11-1.2,20.8-3.1,31.8-7.3c6.1-2.4,12.2-4.9,19.6-8c-1.2,4.3-2.4,7.3-4.3,10.4c-1.8,3.7-3.7,6.7-6.1,9.2
	c-2.4,2.4-5.5,4.3-9.2,5.5c-4.9,1.8-7.3,7.3-5.5,12.2s6.7,7.3,11.6,6.1c11.6-3.7,22.6-6.7,31.8-8.6c-0.6,0.6-0.6,1.2-1.2,1.8
	C517.5,419.4,513.2,426.2,506.4,432.9z"/>
</svg>
